<svg xmlns="http://www.w3.org/2000/svg" version="1.1" xmlns:xlink="http://www.w3.org/1999/xlink" xmlns:svgjs="http://svgjs.dev/svgjs" width="1440" height="560" preserveAspectRatio="none" viewBox="0 0 1440 560"><g mask="url(&quot;#SvgjsMask1000&quot;)" fill="none"><rect width="1440" height="560" x="0" y="0" fill="#0e2a47"></rect><path d="M-93.95 375.72L-93.95 375.72" stroke="#132e65" stroke-width="1.5"></path><path d="M-93.95 375.72L-110.04 498.81" stroke="#132e65" stroke-width="1.5"></path><path d="M-93.95 375.72L77.39 366.38" stroke="#132e65" stroke-width="1.5"></path><path d="M-93.95 375.72L52.47 515.89" stroke="#132e65" stroke-width="1.5"></path><path d="M-93.95 375.72L-38.84 643.95" stroke="#132e65" stroke-width="1.5"></path><path d="M-110.04 498.81L-110.04 498.81" stroke="#132e65" stroke-width="1.5"></path><path d="M-110.04 498.81L-38.84 643.95" stroke="#132e65" stroke-width="1.5"></path><path d="M-38.84 643.95L-38.84 643.95" stroke="#132e65" stroke-width="1.5"></path><path d="M-38.84 643.95L110.32 677.87" stroke="#132e65" stroke-width="1.5"></path><path d="M-38.84 643.95L52.47 515.89" stroke="#132e65" stroke-width="1.5"></path><path d="M77.39 366.38L77.39 366.38" stroke="#132e65" stroke-width="1.5"></path><path d="M77.39 366.38L194.72 373.3" stroke="#132e65" stroke-width="1.5"></path><path d="M52.47 515.89L52.47 515.89" stroke="#132e65" stroke-width="1.5"></path><path d="M52.47 515.89L77.39 366.38" stroke="#132e65" stroke-width="1.5"></path><path d="M52.47 515.89L-110.04 498.81" stroke="#132e65" stroke-width="1.5"></path><path d="M52.47 515.89L110.32 677.87" stroke="#132e65" stroke-width="1.5"></path><path d="M52.47 515.89L231.83 510.76" stroke="#132e65" stroke-width="1.5"></path><path d="M110.32 677.87L110.32 677.87" stroke="#132e65" stroke-width="1.5"></path><path d="M110.32 677.87L231.83 510.76" stroke="#132e65" stroke-width="1.5"></path><path d="M194.72 373.3L194.72 373.3" stroke="#132e65" stroke-width="1.5"></path><path d="M194.72 373.3L231.83 510.76" stroke="#132e65" stroke-width="1.5"></path><path d="M194.72 373.3L346.91 360.5" stroke="#132e65" stroke-width="1.5"></path><path d="M194.72 373.3L52.47 515.89" stroke="#132e65" stroke-width="1.5"></path><path d="M194.72 373.3L364.49 536.44" stroke="#132e65" stroke-width="1.5"></path><path d="M231.83 510.76L231.83 510.76" stroke="#132e65" stroke-width="1.5"></path><path d="M231.83 510.76L364.49 536.44" stroke="#132e65" stroke-width="1.5"></path><path d="M231.83 510.76L346.91 360.5" stroke="#132e65" stroke-width="1.5"></path><path d="M346.91 360.5L346.91 360.5" stroke="#132e65" stroke-width="1.5"></path><path d="M346.91 360.5L364.49 536.44" stroke="#132e65" stroke-width="1.5"></path><path d="M364.49 536.44L364.49 536.44" stroke="#132e65" stroke-width="1.5"></path><path d="M554.75 376.75L554.75 376.75" stroke="#132e65" stroke-width="1.5"></path><path d="M554.75 376.75L702.17 397.92" stroke="#132e65" stroke-width="1.5"></path><path d="M554.75 376.75L710.85 506.23" stroke="#132e65" stroke-width="1.5"></path><path d="M554.75 376.75L346.91 360.5" stroke="#132e65" stroke-width="1.5"></path><path d="M554.75 376.75L709.18 230.27" stroke="#132e65" stroke-width="1.5"></path><path d="M496.31 695.32L496.31 695.32" stroke="#132e65" stroke-width="1.5"></path><path d="M496.31 695.32L364.49 536.44" stroke="#132e65" stroke-width="1.5"></path><path d="M496.31 695.32L702.73 660.33" stroke="#132e65" stroke-width="1.5"></path><path d="M709.18 230.27L709.18 230.27" stroke="#132e65" stroke-width="1.5"></path><path d="M709.18 230.27L800.32 201.27" stroke="#132e65" stroke-width="1.5"></path><path d="M709.18 230.27L702.17 397.92" stroke="#132e65" stroke-width="1.5"></path><path d="M709.18 230.27L848.38 103" stroke="#132e65" stroke-width="1.5"></path><path d="M702.17 397.92L702.17 397.92" stroke="#132e65" stroke-width="1.5"></path><path d="M702.17 397.92L710.85 506.23" stroke="#132e65" stroke-width="1.5"></path><path d="M702.17 397.92L846.69 410.56" stroke="#132e65" stroke-width="1.5"></path><path d="M710.85 506.23L710.85 506.23" stroke="#132e65" stroke-width="1.5"></path><path d="M710.85 506.23L859.66 526.6" stroke="#132e65" stroke-width="1.5"></path><path d="M710.85 506.23L702.73 660.33" stroke="#132e65" stroke-width="1.5"></path><path d="M710.85 506.23L846.69 410.56" stroke="#132e65" stroke-width="1.5"></path><path d="M702.73 660.33L702.73 660.33" stroke="#132e65" stroke-width="1.5"></path><path d="M702.73 660.33L859 654.53" stroke="#132e65" stroke-width="1.5"></path><path d="M702.73 660.33L859.66 526.6" stroke="#132e65" stroke-width="1.5"></path><path d="M702.73 660.33L702.17 397.92" stroke="#132e65" stroke-width="1.5"></path><path d="M848.38 103L848.38 103" stroke="#132e65" stroke-width="1.5"></path><path d="M848.38 103L800.32 201.27" stroke="#132e65" stroke-width="1.5"></path><path d="M848.38 103L1006.52 41.01" stroke="#132e65" stroke-width="1.5"></path><path d="M848.38 103L1002.07 189.08" stroke="#132e65" stroke-width="1.5"></path><path d="M848.38 103L1007.28 -75.56" stroke="#132e65" stroke-width="1.5"></path><path d="M848.38 103L846.69 410.56" stroke="#132e65" stroke-width="1.5"></path><path d="M800.32 201.27L800.32 201.27" stroke="#132e65" stroke-width="1.5"></path><path d="M800.32 201.27L1002.07 189.08" stroke="#132e65" stroke-width="1.5"></path><path d="M846.69 410.56L846.69 410.56" stroke="#132e65" stroke-width="1.5"></path><path d="M846.69 410.56L859.66 526.6" stroke="#132e65" stroke-width="1.5"></path><path d="M846.69 410.56L989.3 386.17" stroke="#132e65" stroke-width="1.5"></path><path d="M859.66 526.6L859.66 526.6" stroke="#132e65" stroke-width="1.5"></path><path d="M859 654.53L859 654.53" stroke="#132e65" stroke-width="1.5"></path><path d="M859 654.53L859.66 526.6" stroke="#132e65" stroke-width="1.5"></path><path d="M859 654.53L1010.5 511.59" stroke="#132e65" stroke-width="1.5"></path><path d="M859 654.53L710.85 506.23" stroke="#132e65" stroke-width="1.5"></path><path d="M1007.28 -75.56L1007.28 -75.56" stroke="#132e65" stroke-width="1.5"></path><path d="M1007.28 -75.56L1104.69 -86.59" stroke="#132e65" stroke-width="1.5"></path><path d="M1007.28 -75.56L1006.52 41.01" stroke="#132e65" stroke-width="1.5"></path><path d="M1007.28 -75.56L1156.27 88.83" stroke="#132e65" stroke-width="1.5"></path><path d="M1006.52 41.01L1006.52 41.01" stroke="#132e65" stroke-width="1.5"></path><path d="M1002.07 189.08L1002.07 189.08" stroke="#132e65" stroke-width="1.5"></path><path d="M1002.07 189.08L1006.52 41.01" stroke="#132e65" stroke-width="1.5"></path><path d="M1002.07 189.08L1152.28 250.9" stroke="#132e65" stroke-width="1.5"></path><path d="M1002.07 189.08L1156.27 88.83" stroke="#132e65" stroke-width="1.5"></path><path d="M989.3 386.17L989.3 386.17" stroke="#132e65" stroke-width="1.5"></path><path d="M989.3 386.17L1010.5 511.59" stroke="#132e65" stroke-width="1.5"></path><path d="M989.3 386.17L859.66 526.6" stroke="#132e65" stroke-width="1.5"></path><path d="M989.3 386.17L1002.07 189.08" stroke="#132e65" stroke-width="1.5"></path><path d="M989.3 386.17L1152.28 250.9" stroke="#132e65" stroke-width="1.5"></path><path d="M989.3 386.17L1159.95 523.68" stroke="#132e65" stroke-width="1.5"></path><path d="M1010.5 511.59L1010.5 511.59" stroke="#132e65" stroke-width="1.5"></path><path d="M1010.5 511.59L1159.95 523.68" stroke="#132e65" stroke-width="1.5"></path><path d="M1010.5 511.59L859.66 526.6" stroke="#132e65" stroke-width="1.5"></path><path d="M1010.5 511.59L1106.11 671.05" stroke="#132e65" stroke-width="1.5"></path><path d="M1010.5 511.59L846.69 410.56" stroke="#132e65" stroke-width="1.5"></path><path d="M1104.69 -86.59L1104.69 -86.59" stroke="#132e65" stroke-width="1.5"></path><path d="M1104.69 -86.59L1006.52 41.01" stroke="#132e65" stroke-width="1.5"></path><path d="M1104.69 -86.59L1269.34 -105.24" stroke="#132e65" stroke-width="1.5"></path><path d="M1104.69 -86.59L1156.27 88.83" stroke="#132e65" stroke-width="1.5"></path><path d="M1104.69 -86.59L1277.81 69.72" stroke="#132e65" stroke-width="1.5"></path><path d="M1156.27 88.83L1156.27 88.83" stroke="#132e65" stroke-width="1.5"></path><path d="M1156.27 88.83L1277.81 69.72" stroke="#132e65" stroke-width="1.5"></path><path d="M1156.27 88.83L1265.63 196.68" stroke="#132e65" stroke-width="1.5"></path><path d="M1156.27 88.83L1006.52 41.01" stroke="#132e65" stroke-width="1.5"></path><path d="M1152.28 250.9L1152.28 250.9" stroke="#132e65" stroke-width="1.5"></path><path d="M1152.28 250.9L1265.63 196.68" stroke="#132e65" stroke-width="1.5"></path><path d="M1152.28 250.9L1247.32 351.79" stroke="#132e65" stroke-width="1.5"></path><path d="M1152.28 250.9L1156.27 88.83" stroke="#132e65" stroke-width="1.5"></path><path d="M1159.95 523.68L1159.95 523.68" stroke="#132e65" stroke-width="1.5"></path><path d="M1159.95 523.68L1273.06 560.46" stroke="#132e65" stroke-width="1.5"></path><path d="M1159.95 523.68L1106.11 671.05" stroke="#132e65" stroke-width="1.5"></path><path d="M1159.95 523.68L1241.08 659.94" stroke="#132e65" stroke-width="1.5"></path><path d="M1159.95 523.68L1247.32 351.79" stroke="#132e65" stroke-width="1.5"></path><path d="M1106.11 671.05L1106.11 671.05" stroke="#132e65" stroke-width="1.5"></path><path d="M1106.11 671.05L1241.08 659.94" stroke="#132e65" stroke-width="1.5"></path><path d="M1269.34 -105.24L1269.34 -105.24" stroke="#132e65" stroke-width="1.5"></path><path d="M1269.34 -105.24L1406.49 -55.83" stroke="#132e65" stroke-width="1.5"></path><path d="M1277.81 69.72L1277.81 69.72" stroke="#132e65" stroke-width="1.5"></path><path d="M1277.81 69.72L1265.63 196.68" stroke="#132e65" stroke-width="1.5"></path><path d="M1277.81 69.72L1412.72 98.44" stroke="#132e65" stroke-width="1.5"></path><path d="M1277.81 69.72L1269.34 -105.24" stroke="#132e65" stroke-width="1.5"></path><path d="M1277.81 69.72L1406.49 -55.83" stroke="#132e65" stroke-width="1.5"></path><path d="M1265.63 196.68L1265.63 196.68" stroke="#132e65" stroke-width="1.5"></path><path d="M1265.63 196.68L1399.6 224.25" stroke="#132e65" stroke-width="1.5"></path><path d="M1265.63 196.68L1247.32 351.79" stroke="#132e65" stroke-width="1.5"></path><path d="M1265.63 196.68L1412.72 98.44" stroke="#132e65" stroke-width="1.5"></path><path d="M1247.32 351.79L1247.32 351.79" stroke="#132e65" stroke-width="1.5"></path><path d="M1247.32 351.79L1392.93 346.94" stroke="#132e65" stroke-width="1.5"></path><path d="M1273.06 560.46L1273.06 560.46" stroke="#132e65" stroke-width="1.5"></path><path d="M1273.06 560.46L1241.08 659.94" stroke="#132e65" stroke-width="1.5"></path><path d="M1273.06 560.46L1458.9 537.91" stroke="#132e65" stroke-width="1.5"></path><path d="M1273.06 560.46L1106.11 671.05" stroke="#132e65" stroke-width="1.5"></path><path d="M1241.08 659.94L1241.08 659.94" stroke="#132e65" stroke-width="1.5"></path><path d="M1406.49 -55.83L1406.49 -55.83" stroke="#132e65" stroke-width="1.5"></path><path d="M1406.49 -55.83L1412.72 98.44" stroke="#132e65" stroke-width="1.5"></path><path d="M1412.72 98.44L1412.72 98.44" stroke="#132e65" stroke-width="1.5"></path><path d="M1412.72 98.44L1399.6 224.25" stroke="#132e65" stroke-width="1.5"></path><path d="M1412.72 98.44L1553.33 76.1" stroke="#132e65" stroke-width="1.5"></path><path d="M1412.72 98.44L1578.95 208.33" stroke="#132e65" stroke-width="1.5"></path><path d="M1399.6 224.25L1399.6 224.25" stroke="#132e65" stroke-width="1.5"></path><path d="M1399.6 224.25L1392.93 346.94" stroke="#132e65" stroke-width="1.5"></path><path d="M1399.6 224.25L1578.95 208.33" stroke="#132e65" stroke-width="1.5"></path><path d="M1399.6 224.25L1277.81 69.72" stroke="#132e65" stroke-width="1.5"></path><path d="M1399.6 224.25L1247.32 351.79" stroke="#132e65" stroke-width="1.5"></path><path d="M1392.93 346.94L1392.93 346.94" stroke="#132e65" stroke-width="1.5"></path><path d="M1392.93 346.94L1583.08 383.51" stroke="#132e65" stroke-width="1.5"></path><path d="M1458.9 537.91L1458.9 537.91" stroke="#132e65" stroke-width="1.5"></path><path d="M1458.9 537.91L1558.8 545.68" stroke="#132e65" stroke-width="1.5"></path><path d="M1458.9 537.91L1462.11 648.28" stroke="#132e65" stroke-width="1.5"></path><path d="M1458.9 537.91L1583.08 383.51" stroke="#132e65" stroke-width="1.5"></path><path d="M1462.11 648.28L1462.11 648.28" stroke="#132e65" stroke-width="1.5"></path><path d="M1462.11 648.28L1558.8 545.68" stroke="#132e65" stroke-width="1.5"></path><path d="M1462.11 648.28L1273.06 560.46" stroke="#132e65" stroke-width="1.5"></path><path d="M1587.28 -58.98L1587.28 -58.98" stroke="#132e65" stroke-width="1.5"></path><path d="M1587.28 -58.98L1553.33 76.1" stroke="#132e65" stroke-width="1.5"></path><path d="M1587.28 -58.98L1406.49 -55.83" stroke="#132e65" stroke-width="1.5"></path><path d="M1587.28 -58.98L1412.72 98.44" stroke="#132e65" stroke-width="1.5"></path><path d="M1553.33 76.1L1553.33 76.1" stroke="#132e65" stroke-width="1.5"></path><path d="M1553.33 76.1L1578.95 208.33" stroke="#132e65" stroke-width="1.5"></path><path d="M1578.95 208.33L1578.95 208.33" stroke="#132e65" stroke-width="1.5"></path><path d="M1578.95 208.33L1583.08 383.51" stroke="#132e65" stroke-width="1.5"></path><path d="M1583.08 383.51L1583.08 383.51" stroke="#132e65" stroke-width="1.5"></path><path d="M1583.08 383.51L1558.8 545.68" stroke="#132e65" stroke-width="1.5"></path><path d="M1583.08 383.51L1399.6 224.25" stroke="#132e65" stroke-width="1.5"></path><path d="M1583.08 383.51L1462.11 648.28" stroke="#132e65" stroke-width="1.5"></path><path d="M1558.8 545.68L1558.8 545.68" stroke="#132e65" stroke-width="1.5"></path><path d="M1558.8 545.68L1392.93 346.94" stroke="#132e65" stroke-width="1.5"></path><path d="M1558.8 545.68L1273.06 560.46" stroke="#132e65" stroke-width="1.5"></path><path d="M1558.8 545.68L1241.08 659.94" stroke="#132e65" stroke-width="1.5"></path><circle r="5" cx="-93.95" cy="375.72" fill="#132e65"></circle><circle r="5" cx="-110.04" cy="498.81" fill="#132e65"></circle><circle r="5" cx="-38.84" cy="643.95" fill="#132e65"></circle><circle r="5" cx="77.39" cy="366.38" fill="#132e65"></circle><circle r="5" cx="52.47" cy="515.89" fill="#132e65"></circle><circle r="5" cx="110.32" cy="677.87" fill="#132e65"></circle><circle r="5" cx="194.72" cy="373.3" fill="#132e65"></circle><circle r="5" cx="231.83" cy="510.76" fill="#132e65"></circle><circle r="5" cx="346.91" cy="360.5" fill="#132e65"></circle><circle r="5" cx="364.49" cy="536.44" fill="#132e65"></circle><circle r="5" cx="554.75" cy="376.75" fill="#132e65"></circle><circle r="5" cx="496.31" cy="695.32" fill="#132e65"></circle><circle r="5" cx="709.18" cy="230.27" fill="#132e65"></circle><circle r="5" cx="702.17" cy="397.92" fill="#132e65"></circle><circle r="5" cx="710.85" cy="506.23" fill="#132e65"></circle><circle r="5" cx="702.73" cy="660.33" fill="#132e65"></circle><circle r="5" cx="848.38" cy="103" fill="#132e65"></circle><circle r="5" cx="800.32" cy="201.27" fill="#132e65"></circle><circle r="5" cx="846.69" cy="410.56" fill="#132e65"></circle><circle r="5" cx="859.66" cy="526.6" fill="#132e65"></circle><circle r="5" cx="859" cy="654.53" fill="#132e65"></circle><circle r="5" cx="1007.28" cy="-75.56" fill="#132e65"></circle><circle r="5" cx="1006.52" cy="41.01" fill="#132e65"></circle><circle r="5" cx="1002.07" cy="189.08" fill="#132e65"></circle><circle r="5" cx="989.3" cy="386.17" fill="#132e65"></circle><circle r="5" cx="1010.5" cy="511.59" fill="#132e65"></circle><circle r="5" cx="1104.69" cy="-86.59" fill="#132e65"></circle><circle r="5" cx="1156.27" cy="88.83" fill="#132e65"></circle><circle r="5" cx="1152.28" cy="250.9" fill="#132e65"></circle><circle r="5" cx="1159.95" cy="523.68" fill="#132e65"></circle><circle r="5" cx="1106.11" cy="671.05" fill="#132e65"></circle><circle r="5" cx="1269.34" cy="-105.24" fill="#132e65"></circle><circle r="5" cx="1277.81" cy="69.72" fill="#132e65"></circle><circle r="5" cx="1265.63" cy="196.68" fill="#132e65"></circle><circle r="5" cx="1247.32" cy="351.79" fill="#132e65"></circle><circle r="5" cx="1273.06" cy="560.46" fill="#132e65"></circle><circle r="5" cx="1241.08" cy="659.94" fill="#132e65"></circle><circle r="5" cx="1406.49" cy="-55.83" fill="#132e65"></circle><circle r="5" cx="1412.72" cy="98.44" fill="#132e65"></circle><circle r="5" cx="1399.6" cy="224.25" fill="#132e65"></circle><circle r="5" cx="1392.93" cy="346.94" fill="#132e65"></circle><circle r="5" cx="1458.9" cy="537.91" fill="#132e65"></circle><circle r="5" cx="1462.11" cy="648.28" fill="#132e65"></circle><circle r="5" cx="1587.28" cy="-58.98" fill="#132e65"></circle><circle r="5" cx="1553.33" cy="76.1" fill="#132e65"></circle><circle r="5" cx="1578.95" cy="208.33" fill="#132e65"></circle><circle r="5" cx="1583.08" cy="383.51" fill="#132e65"></circle><circle r="5" cx="1558.8" cy="545.68" fill="#132e65"></circle><path d="M660.85 536.83L660.85 536.83" stroke="hsl(228.5, 77.2%, 51.5%)" stroke-width="1.5"></path><path d="M660.85 536.83L659.12 408.43" stroke="hsl(228.5, 77.2%, 51.5%)" stroke-width="1.5"></path><path d="M660.85 536.83L532.34 504.87" stroke="hsl(228.5, 77.2%, 51.5%)" stroke-width="1.5"></path><path d="M660.85 536.83L818.09 527.42" stroke="hsl(228.5, 77.2%, 51.5%)" stroke-width="1.5"></path><path d="M660.85 536.83L687.4 695.26" stroke="hsl(228.5, 77.2%, 51.5%)" stroke-width="1.5"></path><path d="M660.85 536.83L529.91 643.93" stroke="hsl(228.5, 77.2%, 51.5%)" stroke-width="1.5"></path><path d="M818.09 527.42L818.09 527.42" stroke="hsl(228.5, 77.2%, 51.5%)" stroke-width="1.5"></path><path d="M818.09 527.42L855.83 652.55" stroke="hsl(228.5, 77.2%, 51.5%)" stroke-width="1.5"></path><path d="M818.09 527.42L965.17 507.34" stroke="hsl(228.5, 77.2%, 51.5%)" stroke-width="1.5"></path><path d="M818.09 527.42L823.22 361.59" stroke="hsl(228.5, 77.2%, 51.5%)" stroke-width="1.5"></path><path d="M818.09 527.42L659.12 408.43" stroke="hsl(228.5, 77.2%, 51.5%)" stroke-width="1.5"></path><path d="M855.83 652.55L855.83 652.55" stroke="hsl(228.5, 77.2%, 51.5%)" stroke-width="1.5"></path><path d="M855.83 652.55L998.6 698.48" stroke="hsl(228.5, 77.2%, 51.5%)" stroke-width="1.5"></path><path d="M855.83 652.55L687.4 695.26" stroke="hsl(228.5, 77.2%, 51.5%)" stroke-width="1.5"></path><path d="M855.83 652.55L965.17 507.34" stroke="hsl(228.5, 77.2%, 51.5%)" stroke-width="1.5"></path><path d="M855.83 652.55L660.85 536.83" stroke="hsl(228.5, 77.2%, 51.5%)" stroke-width="1.5"></path><path d="M855.83 652.55L1120.9 662.25" stroke="hsl(228.5, 77.2%, 51.5%)" stroke-width="1.5"></path><path d="M1409.4 389.39L1409.4 389.39" stroke="hsl(228.5, 77.2%, 51.5%)" stroke-width="1.5"></path><path d="M1409.4 389.39L1547.3 340.07" stroke="hsl(228.5, 77.2%, 51.5%)" stroke-width="1.5"></path><path d="M1409.4 389.39L1408.06 542.22" stroke="hsl(228.5, 77.2%, 51.5%)" stroke-width="1.5"></path><path d="M1409.4 389.39L1260.1 339.37" stroke="hsl(228.5, 77.2%, 51.5%)" stroke-width="1.5"></path><path d="M1408.06 542.22L1408.06 542.22" stroke="hsl(228.5, 77.2%, 51.5%)" stroke-width="1.5"></path><path d="M1408.06 542.22L1416.73 678.31" stroke="hsl(228.5, 77.2%, 51.5%)" stroke-width="1.5"></path><path d="M1408.06 542.22L1268.48 494.73" stroke="hsl(228.5, 77.2%, 51.5%)" stroke-width="1.5"></path><path d="M1587.45 258.15L1587.45 258.15" stroke="hsl(228.5, 77.2%, 51.5%)" stroke-width="1.5"></path><path d="M1587.45 258.15L1547.3 340.07" stroke="hsl(228.5, 77.2%, 51.5%)" stroke-width="1.5"></path><path d="M1587.45 258.15L1441.67 220.95" stroke="hsl(228.5, 77.2%, 51.5%)" stroke-width="1.5"></path><path d="M1587.45 258.15L1600.93 80.6" stroke="hsl(228.5, 77.2%, 51.5%)" stroke-width="1.5"></path><path d="M1547.3 340.07L1547.3 340.07" stroke="hsl(228.5, 77.2%, 51.5%)" stroke-width="1.5"></path><path d="M-102.39 515.99L-102.39 515.99" stroke="hsl(228.5, 77.2%, 51.5%)" stroke-width="1.5"></path><path d="M-102.39 515.99L60.13 546.14" stroke="hsl(228.5, 77.2%, 51.5%)" stroke-width="1.5"></path><path d="M-102.39 515.99L-112.17 693.7" stroke="hsl(228.5, 77.2%, 51.5%)" stroke-width="1.5"></path><path d="M-102.39 515.99L92.33 711.5" stroke="hsl(228.5, 77.2%, 51.5%)" stroke-width="1.5"></path><path d="M-102.39 515.99L235.49 490.69" stroke="hsl(228.5, 77.2%, 51.5%)" stroke-width="1.5"></path><path d="M-102.39 515.99L232.12 670.63" stroke="hsl(228.5, 77.2%, 51.5%)" stroke-width="1.5"></path><path d="M-112.17 693.7L-112.17 693.7" stroke="hsl(228.5, 77.2%, 51.5%)" stroke-width="1.5"></path><path d="M-112.17 693.7L92.33 711.5" stroke="hsl(228.5, 77.2%, 51.5%)" stroke-width="1.5"></path><path d="M-112.17 693.7L60.13 546.14" stroke="hsl(228.5, 77.2%, 51.5%)" stroke-width="1.5"></path><path d="M-112.17 693.7L232.12 670.63" stroke="hsl(228.5, 77.2%, 51.5%)" stroke-width="1.5"></path><path d="M-112.17 693.7L235.49 490.69" stroke="hsl(228.5, 77.2%, 51.5%)" stroke-width="1.5"></path><path d="M60.13 546.14L60.13 546.14" stroke="hsl(228.5, 77.2%, 51.5%)" stroke-width="1.5"></path><path d="M60.13 546.14L92.33 711.5" stroke="hsl(228.5, 77.2%, 51.5%)" stroke-width="1.5"></path><path d="M92.33 711.5L92.33 711.5" stroke="hsl(228.5, 77.2%, 51.5%)" stroke-width="1.5"></path><path d="M92.33 711.5L232.12 670.63" stroke="hsl(228.5, 77.2%, 51.5%)" stroke-width="1.5"></path><path d="M92.33 711.5L235.49 490.69" stroke="hsl(228.5, 77.2%, 51.5%)" stroke-width="1.5"></path><path d="M235.49 490.69L235.49 490.69" stroke="hsl(228.5, 77.2%, 51.5%)" stroke-width="1.5"></path><path d="M235.49 490.69L232.12 670.63" stroke="hsl(228.5, 77.2%, 51.5%)" stroke-width="1.5"></path><path d="M232.12 670.63L232.12 670.63" stroke="hsl(228.5, 77.2%, 51.5%)" stroke-width="1.5"></path><path d="M232.12 670.63L397.59 672.96" stroke="hsl(228.5, 77.2%, 51.5%)" stroke-width="1.5"></path><path d="M232.12 670.63L60.13 546.14" stroke="hsl(228.5, 77.2%, 51.5%)" stroke-width="1.5"></path><path d="M397.59 672.96L397.59 672.96" stroke="hsl(228.5, 77.2%, 51.5%)" stroke-width="1.5"></path><path d="M397.59 672.96L529.91 643.93" stroke="hsl(228.5, 77.2%, 51.5%)" stroke-width="1.5"></path><path d="M397.59 672.96L532.34 504.87" stroke="hsl(228.5, 77.2%, 51.5%)" stroke-width="1.5"></path><path d="M397.59 672.96L235.49 490.69" stroke="hsl(228.5, 77.2%, 51.5%)" stroke-width="1.5"></path><path d="M397.59 672.96L687.4 695.26" stroke="hsl(228.5, 77.2%, 51.5%)" stroke-width="1.5"></path><path d="M397.59 672.96L660.85 536.83" stroke="hsl(228.5, 77.2%, 51.5%)" stroke-width="1.5"></path><path d="M532.34 504.87L532.34 504.87" stroke="hsl(228.5, 77.2%, 51.5%)" stroke-width="1.5"></path><path d="M532.34 504.87L529.91 643.93" stroke="hsl(228.5, 77.2%, 51.5%)" stroke-width="1.5"></path><path d="M532.34 504.87L659.12 408.43" stroke="hsl(228.5, 77.2%, 51.5%)" stroke-width="1.5"></path><path d="M529.91 643.93L529.91 643.93" stroke="hsl(228.5, 77.2%, 51.5%)" stroke-width="1.5"></path><path d="M659.12 408.43L659.12 408.43" stroke="hsl(228.5, 77.2%, 51.5%)" stroke-width="1.5"></path><path d="M659.12 408.43L823.22 361.59" stroke="hsl(228.5, 77.2%, 51.5%)" stroke-width="1.5"></path><path d="M687.4 695.26L687.4 695.26" stroke="hsl(228.5, 77.2%, 51.5%)" stroke-width="1.5"></path><path d="M687.4 695.26L529.91 643.93" stroke="hsl(228.5, 77.2%, 51.5%)" stroke-width="1.5"></path><path d="M823.22 361.59L823.22 361.59" stroke="hsl(228.5, 77.2%, 51.5%)" stroke-width="1.5"></path><path d="M823.22 361.59L965.17 507.34" stroke="hsl(228.5, 77.2%, 51.5%)" stroke-width="1.5"></path><path d="M965.17 507.34L965.17 507.34" stroke="hsl(228.5, 77.2%, 51.5%)" stroke-width="1.5"></path><path d="M965.17 507.34L998.6 698.48" stroke="hsl(228.5, 77.2%, 51.5%)" stroke-width="1.5"></path><path d="M998.6 698.48L998.6 698.48" stroke="hsl(228.5, 77.2%, 51.5%)" stroke-width="1.5"></path><path d="M998.6 698.48L1120.9 662.25" stroke="hsl(228.5, 77.2%, 51.5%)" stroke-width="1.5"></path><path d="M1112.99 196.96L1112.99 196.96" stroke="hsl(228.5, 77.2%, 51.5%)" stroke-width="1.5"></path><path d="M1112.99 196.96L1301.97 191.06" stroke="hsl(228.5, 77.2%, 51.5%)" stroke-width="1.5"></path><path d="M1112.99 196.96L1260.1 339.37" stroke="hsl(228.5, 77.2%, 51.5%)" stroke-width="1.5"></path><path d="M1112.99 196.96L1256.15 49.3" stroke="hsl(228.5, 77.2%, 51.5%)" stroke-width="1.5"></path><path d="M1158.4 533.19L1158.4 533.19" stroke="hsl(228.5, 77.2%, 51.5%)" stroke-width="1.5"></path><path d="M1158.4 533.19L1268.48 494.73" stroke="hsl(228.5, 77.2%, 51.5%)" stroke-width="1.5"></path><path d="M1158.4 533.19L1120.9 662.25" stroke="hsl(228.5, 77.2%, 51.5%)" stroke-width="1.5"></path><path d="M1158.4 533.19L1284.27 662.4" stroke="hsl(228.5, 77.2%, 51.5%)" stroke-width="1.5"></path><path d="M1120.9 662.25L1120.9 662.25" stroke="hsl(228.5, 77.2%, 51.5%)" stroke-width="1.5"></path><path d="M1243.19 -69.66L1243.19 -69.66" stroke="hsl(228.5, 77.2%, 51.5%)" stroke-width="1.5"></path><path d="M1243.19 -69.66L1256.15 49.3" stroke="hsl(228.5, 77.2%, 51.5%)" stroke-width="1.5"></path><path d="M1243.19 -69.66L1415.84 -53.31" stroke="hsl(228.5, 77.2%, 51.5%)" stroke-width="1.5"></path><path d="M1243.19 -69.66L1425.2 38.06" stroke="hsl(228.5, 77.2%, 51.5%)" stroke-width="1.5"></path><path d="M1243.19 -69.66L1301.97 191.06" stroke="hsl(228.5, 77.2%, 51.5%)" stroke-width="1.5"></path><path d="M1256.15 49.3L1256.15 49.3" stroke="hsl(228.5, 77.2%, 51.5%)" stroke-width="1.5"></path><path d="M1256.15 49.3L1301.97 191.06" stroke="hsl(228.5, 77.2%, 51.5%)" stroke-width="1.5"></path><path d="M1256.15 49.3L1425.2 38.06" stroke="hsl(228.5, 77.2%, 51.5%)" stroke-width="1.5"></path><path d="M1256.15 49.3L1415.84 -53.31" stroke="hsl(228.5, 77.2%, 51.5%)" stroke-width="1.5"></path><path d="M1256.15 49.3L1441.67 220.95" stroke="hsl(228.5, 77.2%, 51.5%)" stroke-width="1.5"></path><path d="M1301.97 191.06L1301.97 191.06" stroke="hsl(228.5, 77.2%, 51.5%)" stroke-width="1.5"></path><path d="M1301.97 191.06L1441.67 220.95" stroke="hsl(228.5, 77.2%, 51.5%)" stroke-width="1.5"></path><path d="M1301.97 191.06L1260.1 339.37" stroke="hsl(228.5, 77.2%, 51.5%)" stroke-width="1.5"></path><path d="M1260.1 339.37L1260.1 339.37" stroke="hsl(228.5, 77.2%, 51.5%)" stroke-width="1.5"></path><path d="M1260.1 339.37L1268.48 494.73" stroke="hsl(228.5, 77.2%, 51.5%)" stroke-width="1.5"></path><path d="M1260.1 339.37L1441.67 220.95" stroke="hsl(228.5, 77.2%, 51.5%)" stroke-width="1.5"></path><path d="M1268.48 494.73L1268.48 494.73" stroke="hsl(228.5, 77.2%, 51.5%)" stroke-width="1.5"></path><path d="M1284.27 662.4L1284.27 662.4" stroke="hsl(228.5, 77.2%, 51.5%)" stroke-width="1.5"></path><path d="M1284.27 662.4L1416.73 678.31" stroke="hsl(228.5, 77.2%, 51.5%)" stroke-width="1.5"></path><path d="M1284.27 662.4L1120.9 662.25" stroke="hsl(228.5, 77.2%, 51.5%)" stroke-width="1.5"></path><path d="M1284.27 662.4L1268.48 494.73" stroke="hsl(228.5, 77.2%, 51.5%)" stroke-width="1.5"></path><path d="M1284.27 662.4L1408.06 542.22" stroke="hsl(228.5, 77.2%, 51.5%)" stroke-width="1.5"></path><path d="M1415.84 -53.31L1415.84 -53.31" stroke="hsl(228.5, 77.2%, 51.5%)" stroke-width="1.5"></path><path d="M1415.84 -53.31L1425.2 38.06" stroke="hsl(228.5, 77.2%, 51.5%)" stroke-width="1.5"></path><path d="M1415.84 -53.31L1600.93 80.6" stroke="hsl(228.5, 77.2%, 51.5%)" stroke-width="1.5"></path><path d="M1425.2 38.06L1425.2 38.06" stroke="hsl(228.5, 77.2%, 51.5%)" stroke-width="1.5"></path><path d="M1441.67 220.95L1441.67 220.95" stroke="hsl(228.5, 77.2%, 51.5%)" stroke-width="1.5"></path><path d="M1441.67 220.95L1547.3 340.07" stroke="hsl(228.5, 77.2%, 51.5%)" stroke-width="1.5"></path><path d="M1441.67 220.95L1409.4 389.39" stroke="hsl(228.5, 77.2%, 51.5%)" stroke-width="1.5"></path><path d="M1416.73 678.31L1416.73 678.31" stroke="hsl(228.5, 77.2%, 51.5%)" stroke-width="1.5"></path><path d="M1416.73 678.31L1558.93 640.57" stroke="hsl(228.5, 77.2%, 51.5%)" stroke-width="1.5"></path><path d="M1416.73 678.31L1268.48 494.73" stroke="hsl(228.5, 77.2%, 51.5%)" stroke-width="1.5"></path><path d="M1600.93 80.6L1600.93 80.6" stroke="hsl(228.5, 77.2%, 51.5%)" stroke-width="1.5"></path><path d="M1558.93 640.57L1558.93 640.57" stroke="hsl(228.5, 77.2%, 51.5%)" stroke-width="1.5"></path><path d="M1558.93 640.57L1408.06 542.22" stroke="hsl(228.5, 77.2%, 51.5%)" stroke-width="1.5"></path><path d="M1558.93 640.57L1284.27 662.4" stroke="hsl(228.5, 77.2%, 51.5%)" stroke-width="1.5"></path><path d="M1558.93 640.57L1409.4 389.39" stroke="hsl(228.5, 77.2%, 51.5%)" stroke-width="1.5"></path><path d="M1558.93 640.57L1547.3 340.07" stroke="hsl(228.5, 77.2%, 51.5%)" stroke-width="1.5"></path><circle r="25" cx="660.85" cy="536.83" fill="url(&quot;#SvgjsRadialGradient1001&quot;)"></circle><circle r="25" cx="818.09" cy="527.42" fill="url(&quot;#SvgjsRadialGradient1001&quot;)"></circle><circle r="25" cx="855.83" cy="652.55" fill="url(&quot;#SvgjsRadialGradient1001&quot;)"></circle><circle r="25" cx="1409.4" cy="389.39" fill="url(&quot;#SvgjsRadialGradient1001&quot;)"></circle><circle r="25" cx="1408.06" cy="542.22" fill="url(&quot;#SvgjsRadialGradient1001&quot;)"></circle><circle r="25" cx="1587.45" cy="258.15" fill="url(&quot;#SvgjsRadialGradient1001&quot;)"></circle><circle r="25" cx="1547.3" cy="340.07" fill="url(&quot;#SvgjsRadialGradient1001&quot;)"></circle><circle r="5" cx="-102.39" cy="515.99" fill="#8b9ad9"></circle><circle r="5" cx="-112.17" cy="693.7" fill="#8b9ad9"></circle><circle r="5" cx="60.13" cy="546.14" fill="#8b9ad9"></circle><circle r="5" cx="92.33" cy="711.5" fill="#8b9ad9"></circle><circle r="5" cx="235.49" cy="490.69" fill="#8b9ad9"></circle><circle r="5" cx="232.12" cy="670.63" fill="#8b9ad9"></circle><circle r="5" cx="397.59" cy="672.96" fill="#8b9ad9"></circle><circle r="5" cx="532.34" cy="504.87" fill="#8b9ad9"></circle><circle r="5" cx="529.91" cy="643.93" fill="#8b9ad9"></circle><circle r="5" cx="659.12" cy="408.43" fill="#8b9ad9"></circle><circle r="5" cx="687.4" cy="695.26" fill="#8b9ad9"></circle><circle r="5" cx="823.22" cy="361.59" fill="#8b9ad9"></circle><circle r="5" cx="965.17" cy="507.34" fill="#8b9ad9"></circle><circle r="5" cx="998.6" cy="698.48" fill="#8b9ad9"></circle><circle r="5" cx="1112.99" cy="196.96" fill="#8b9ad9"></circle><circle r="5" cx="1158.4" cy="533.19" fill="#8b9ad9"></circle><circle r="5" cx="1120.9" cy="662.25" fill="#8b9ad9"></circle><circle r="5" cx="1243.19" cy="-69.66" fill="#8b9ad9"></circle><circle r="5" cx="1256.15" cy="49.3" fill="#8b9ad9"></circle><circle r="5" cx="1301.97" cy="191.06" fill="#8b9ad9"></circle><circle r="5" cx="1260.1" cy="339.37" fill="#8b9ad9"></circle><circle r="5" cx="1268.48" cy="494.73" fill="#8b9ad9"></circle><circle r="5" cx="1284.27" cy="662.4" fill="#8b9ad9"></circle><circle r="5" cx="1415.84" cy="-53.31" fill="#8b9ad9"></circle><circle r="5" cx="1425.2" cy="38.06" fill="#8b9ad9"></circle><circle r="5" cx="1441.67" cy="220.95" fill="#8b9ad9"></circle><circle r="5" cx="1416.73" cy="678.31" fill="#8b9ad9"></circle><circle r="5" cx="1600.93" cy="80.6" fill="#8b9ad9"></circle><circle r="5" cx="1558.93" cy="640.57" fill="#8b9ad9"></circle></g><defs><mask id="SvgjsMask1000"><rect width="1440" height="560" fill="#ffffff"></rect></mask><radialGradient id="SvgjsRadialGradient1001"><stop stop-color="#ffffff" offset="0.1"></stop><stop stop-color="#1735b3" offset="0.2"></stop><stop stop-color="rgba(23, 53, 179, 0)" offset="1"></stop></radialGradient></defs></svg>